<?xml version="1.0" encoding="utf-8"?>
<!-- Generator: Adobe Illustrator 22.0.0, SVG Export Plug-In . SVG Version: 6.00 Build 0)  -->
<svg version="1.1" id="Слой_1" xmlns="http://www.w3.org/2000/svg" xmlns:xlink="http://www.w3.org/1999/xlink" x="0px" y="0px"
	 viewBox="0 0 740.8 264.2" style="enable-background:new 0 0 740.8 264.2;" xml:space="preserve">
<style type="text/css">
	.st0{fill:#3f51b5/*#00A695*/;}
	.st1{fill:#999999;}
</style>
<g>
	<g>
		<polygon class="st0" points="83.7,0 83.7,13.9 69.8,13.9 69.8,27.9 55.9,27.9 55.9,41.8 41.9,41.8 41.9,55.8 28,55.8 28,69.7 
			14,69.7 14,83.6 28,83.6 41.9,83.6 41.9,69.7 55.9,69.7 55.9,55.8 69.8,55.8 69.8,41.8 83.7,41.8 83.7,55.8 97.7,55.8 97.7,41.8 
			97.7,27.9 97.7,13.9 97.7,0 		"/>
		<g>
			<polygon points="320.7,83.6 306.8,83.6 292.8,83.6 278.9,83.6 265,83.6 251,83.6 237.1,83.6 223.1,83.6 209.2,83.6 195.3,83.6 
				181.3,83.6 167.4,83.6 153.4,83.6 139.5,83.6 125.6,83.6 111.6,83.6 97.7,83.6 83.7,83.6 69.8,83.6 55.9,83.6 41.9,83.6 28,83.6 
				14,83.6 0.1,83.6 0.1,97.6 0.1,111.5 0.1,125.5 14,125.5 14,139.4 28,139.4 28,153.3 41.9,153.3 55.9,153.3 69.8,153.3 
				83.7,153.3 97.7,153.3 111.6,153.3 125.6,153.3 125.6,139.4 139.5,139.4 139.5,125.5 153.4,125.5 153.4,111.5 153.4,97.6 
				167.4,97.6 181.3,97.6 181.3,111.5 181.3,125.5 195.3,125.5 195.3,139.4 209.2,139.4 209.2,153.3 223.1,153.3 237.1,153.3 
				251,153.3 265,153.3 278.9,153.3 292.8,153.3 306.8,153.3 306.8,139.4 320.7,139.4 320.7,125.5 334.7,125.5 334.7,111.5 
				334.7,97.6 334.7,83.6 			"/>
			<g>
				<rect x="14" y="97.6" class="st1" width="13.9" height="13.9"/>
				<rect x="41.9" y="97.6" class="st1" width="13.9" height="13.9"/>
				<rect x="28" y="111.5" class="st1" width="13.9" height="13.9"/>
				<rect x="41.9" y="125.5" class="st1" width="13.9" height="13.9"/>
				<rect x="55.9" y="111.5" class="st1" width="13.9" height="13.9"/>
				<rect x="69.8" y="125.5" class="st1" width="13.9" height="13.9"/>
				<rect x="223.1" y="97.6" class="st1" width="13.9" height="13.9"/>
				<rect x="237.1" y="111.5" class="st1" width="13.9" height="13.9"/>
				<rect x="251" y="125.5" class="st1" width="13.9" height="13.9"/>
				<rect x="223.1" y="125.5" class="st1" width="13.9" height="13.9"/>
				<rect x="209.2" y="111.5" class="st1" width="13.9" height="13.9"/>
				<rect x="195.3" y="97.6" class="st1" width="13.9" height="13.9"/>
			</g>
		</g>
		<polygon class="st0" points="404.4,0 404.4,13.9 390.4,13.9 390.4,27.9 376.5,27.9 376.5,41.8 362.5,41.8 362.5,55.8 348.6,55.8 
			348.6,69.7 334.7,69.7 334.7,83.6 334.7,97.6 348.6,97.6 348.6,83.6 362.5,83.6 362.5,69.7 376.5,69.7 376.5,55.8 390.4,55.8 
			390.4,41.8 404.4,41.8 404.4,55.8 418.3,55.8 418.3,41.8 418.3,27.9 418.3,13.9 418.3,0 		"/>
	</g>
	<g>
		<g>
			<path class="st0" d="M65.3,200.6h-0.5l-6.7,13.8l-17.7,32.7l-17.7-32.7L16,200.6h-0.5v62.1H0v-86.5h18.5l22.2,42.3h0.5l21.9-42.3
				h17.7v86.5H65.3V200.6z"/>
			<path class="st0" d="M126.3,264.2c-4.8,0-9.1-0.8-12.8-2.4c-3.8-1.6-6.9-3.9-9.5-6.8c-2.6-2.9-4.6-6.5-6-10.7
				c-1.4-4.2-2.1-8.9-2.1-14.1c0-5.1,0.7-9.7,2-13.9c1.4-4.1,3.3-7.7,5.9-10.6c2.6-2.9,5.7-5.2,9.4-6.8c3.7-1.6,7.9-2.4,12.6-2.4
				c5,0,9.4,0.9,13.1,2.6c3.7,1.7,6.8,4.1,9.2,7.1c2.4,3,4.2,6.4,5.4,10.3c1.2,3.9,1.8,8.1,1.8,12.6v5.2h-43v1.6
				c0,4.7,1.3,8.4,4,11.3c2.6,2.8,6.6,4.2,11.8,4.2c4,0,7.2-0.8,9.7-2.5c2.5-1.6,4.8-3.7,6.8-6.3l8.6,9.6c-2.6,3.7-6.3,6.7-10.8,8.8
				C137.6,263.1,132.3,264.2,126.3,264.2z M126,208.4c-4.2,0-7.6,1.4-10,4.2c-2.5,2.8-3.7,6.4-3.7,10.9v1h26.5v-1.1
				c0-4.5-1.1-8.1-3.3-10.8C133.3,209.8,130.2,208.4,126,208.4z"/>
			<path class="st0" d="M169.3,262.7V198h15.9v10.8h0.6c1.2-3.4,3.2-6.3,5.9-8.7c2.7-2.4,6.5-3.6,11.4-3.6c4.5,0,8.3,1.1,11.5,3.2
				c3.2,2.1,5.6,5.4,7.2,9.8h0.2c1.2-3.6,3.4-6.7,6.9-9.2c3.4-2.5,7.7-3.8,13-3.8c6.4,0,11.3,2.2,14.7,6.6
				c3.4,4.4,5.1,10.6,5.1,18.7v40.9h-15.9v-39.3c0-9.3-3.5-13.9-10.4-13.9c-1.6,0-3.1,0.2-4.5,0.7c-1.4,0.5-2.7,1.1-3.8,2
				c-1.1,0.9-2,1.9-2.7,3.2c-0.7,1.3-1,2.8-1,4.5v42.8h-15.9v-39.3c0-9.3-3.5-13.9-10.4-13.9c-1.5,0-3,0.2-4.4,0.7
				c-1.4,0.5-2.7,1.1-3.8,2c-1.1,0.9-2,1.9-2.7,3.2c-0.7,1.3-1.1,2.8-1.1,4.5v42.8H169.3z"/>
			<path class="st0" d="M305.5,264.2c-4.8,0-9.1-0.8-12.8-2.4c-3.8-1.6-6.9-3.9-9.5-6.8c-2.6-2.9-4.6-6.5-6-10.7
				c-1.4-4.2-2.1-8.9-2.1-14.1c0-5.1,0.7-9.7,2-13.9c1.4-4.1,3.3-7.7,5.9-10.6c2.6-2.9,5.7-5.2,9.4-6.8c3.7-1.6,7.9-2.4,12.6-2.4
				c5,0,9.4,0.9,13.1,2.6c3.7,1.7,6.8,4.1,9.2,7.1c2.4,3,4.2,6.4,5.4,10.3c1.2,3.9,1.8,8.1,1.8,12.6v5.2h-43v1.6
				c0,4.7,1.3,8.4,4,11.3c2.6,2.8,6.6,4.2,11.8,4.2c4,0,7.2-0.8,9.7-2.5c2.5-1.6,4.8-3.7,6.8-6.3l8.6,9.6c-2.6,3.7-6.3,6.7-10.8,8.8
				C316.8,263.1,311.5,264.2,305.5,264.2z M305.3,208.4c-4.2,0-7.6,1.4-10,4.2c-2.5,2.8-3.7,6.4-3.7,10.9v1H318v-1.1
				c0-4.5-1.1-8.1-3.3-10.8C312.5,209.8,309.4,208.4,305.3,208.4z"/>
		</g>
		<g>
			<path d="M387.6,264.2c-7.4,0-13.7-1.3-18.9-4c-5.2-2.6-9.6-6.1-13.3-10.4l11-10.7c3,3.4,6.3,6.1,10,7.9c3.7,1.8,7.7,2.7,12.2,2.7
				c5,0,8.8-1.1,11.4-3.3c2.6-2.2,3.8-5.1,3.8-8.8c0-2.9-0.8-5.2-2.5-7c-1.7-1.8-4.8-3.1-9.3-3.9l-8.2-1.2
				c-17.3-2.7-25.9-11.1-25.9-25.2c0-3.9,0.7-7.4,2.2-10.5c1.4-3.1,3.5-5.8,6.3-8.1c2.7-2.2,6-4,9.9-5.2c3.8-1.2,8.2-1.8,13.1-1.8
				c6.5,0,12.2,1.1,17.1,3.2c4.9,2.2,9,5.3,12.5,9.6L407.8,198c-2.1-2.6-4.8-4.8-7.8-6.4c-3.1-1.6-6.9-2.5-11.5-2.5
				c-4.7,0-8.2,0.9-10.6,2.6c-2.4,1.8-3.5,4.2-3.5,7.4c0,3.3,0.9,5.7,2.8,7.3c1.9,1.6,5,2.7,9.2,3.4l8.1,1.5
				c8.8,1.6,15.2,4.4,19.4,8.4c4.2,4,6.3,9.6,6.3,16.8c0,4.1-0.7,7.9-2.2,11.2c-1.4,3.4-3.6,6.2-6.3,8.7c-2.8,2.4-6.2,4.3-10.2,5.6
				C397.4,263.5,392.8,264.2,387.6,264.2z"/>
			<path d="M461.5,264.2c-4.8,0-9.1-0.8-12.8-2.4c-3.8-1.6-6.9-3.9-9.5-6.8c-2.6-2.9-4.6-6.5-6-10.7c-1.4-4.2-2.1-8.9-2.1-14.1
				c0-5.1,0.7-9.7,2-13.9c1.4-4.1,3.3-7.7,5.9-10.6c2.6-2.9,5.7-5.2,9.4-6.8c3.7-1.6,7.9-2.4,12.6-2.4c5,0,9.4,0.9,13.1,2.6
				c3.7,1.7,6.8,4.1,9.2,7.1c2.4,3,4.2,6.4,5.4,10.3c1.2,3.9,1.8,8.1,1.8,12.6v5.2h-43v1.6c0,4.7,1.3,8.4,4,11.3
				c2.6,2.8,6.6,4.2,11.8,4.2c4,0,7.2-0.8,9.7-2.5c2.5-1.6,4.8-3.7,6.8-6.3l8.6,9.6c-2.6,3.7-6.3,6.7-10.8,8.8
				C472.9,263.1,467.6,264.2,461.5,264.2z M461.3,208.4c-4.2,0-7.6,1.4-10,4.2c-2.5,2.8-3.7,6.4-3.7,10.9v1h26.5v-1.1
				c0-4.5-1.1-8.1-3.3-10.8C468.6,209.8,465.4,208.4,461.3,208.4z"/>
			<path d="M552.1,262.7c-3.5,0-6.2-1-8.2-3c-2-2-3.3-4.7-3.8-8.1h-0.7c-1.1,4.2-3.3,7.4-6.6,9.5c-3.3,2.1-7.4,3.2-12.3,3.2
				c-6.6,0-11.7-1.7-15.2-5.2c-3.6-3.5-5.3-8.1-5.3-13.8c0-6.7,2.4-11.6,7.2-14.9c4.8-3.3,11.6-4.9,20.4-4.9h11v-4.7
				c0-3.6-1-6.4-2.9-8.4c-1.9-2-5-3-9.2-3c-3.7,0-6.7,0.8-9,2.4c-2.3,1.6-4.2,3.5-5.8,5.8l-9.4-8.5c2.4-3.7,5.6-6.8,9.5-9
				c4-2.3,9.2-3.4,15.7-3.4c8.8,0,15.4,2,20,5.9c4.5,4,6.8,9.6,6.8,17.1v30.4h6.4v12.8H552.1z M525.9,252.6c3.6,0,6.6-0.8,9-2.3
				c2.5-1.6,3.7-3.9,3.7-6.9v-8.5h-10.2c-8.3,0-12.4,2.6-12.4,7.9v2.1c0,2.6,0.8,4.6,2.5,5.8C520.3,252,522.7,252.6,525.9,252.6z"/>
			<path d="M573.8,262.7V198h15.9v13.4h0.6c0.4-1.7,1.1-3.4,1.9-5c0.9-1.6,2-3,3.4-4.3c1.4-1.2,3.1-2.2,5-3c1.9-0.7,4.2-1.1,6.8-1.1
				h3.5v15h-5c-5.4,0-9.4,0.8-12.1,2.4c-2.7,1.6-4.1,4.1-4.1,7.7v39.7H573.8z"/>
			<path d="M647.4,264.2c-4.8,0-9-0.8-12.8-2.4c-3.7-1.6-6.8-3.8-9.4-6.8c-2.5-3-4.4-6.5-5.8-10.7c-1.3-4.2-2-8.9-2-14.1
				c0-5.2,0.7-9.9,2-14c1.3-4.1,3.2-7.7,5.8-10.6c2.5-2.9,5.6-5.2,9.4-6.8c3.7-1.6,8-2.4,12.8-2.4c6.5,0,11.9,1.4,16.2,4.3
				c4.3,2.9,7.3,6.9,9.2,12l-13,5.8c-0.7-2.7-2.1-5-4.2-6.8c-2-1.8-4.8-2.7-8.2-2.7c-4.5,0-7.8,1.4-10,4.2c-2.2,2.8-3.3,6.5-3.3,11
				v11.8c0,4.5,1.1,8.2,3.3,11c2.2,2.8,5.5,4.2,10,4.2c3.8,0,6.7-1,8.8-2.9c2.1-1.9,3.7-4.4,4.8-7.3l12.1,5.8
				c-2.1,5.7-5.4,10-9.8,12.8C659.1,262.7,653.7,264.2,647.4,264.2z"/>
			<path d="M685.5,171h15.9v37.8h0.6c1.3-3.5,3.4-6.4,6.3-8.7c2.9-2.4,6.8-3.5,11.8-3.5c6.7,0,11.8,2.2,15.4,6.6
				c3.6,4.4,5.3,10.6,5.3,18.7v40.9h-15.9v-39.3c0-4.6-0.8-8.1-2.5-10.4c-1.7-2.3-4.4-3.5-8.2-3.5c-1.7,0-3.2,0.2-4.8,0.7
				c-1.5,0.5-2.9,1.1-4.1,2c-1.2,0.9-2.2,1.9-2.9,3.2c-0.7,1.3-1.1,2.8-1.1,4.5v42.8h-15.9V171z"/>
		</g>
	</g>
</g>
</svg>
